<svg xmlns="http://www.w3.org/2000/svg" version="1.1" xmlns:xlink="http://www.w3.org/1999/xlink" xmlns:svgjs="http://svgjs.com/svgjs" width="1000" height="1000"><svg enable-background="new 0 0 1000 1000" version="1.1" viewBox="250 0 1000 1e3" xml:space="preserve" xmlns="http://www.w3.org/2000/svg"><path d="m782.62 493.26v-294.29c0-31.788-11.28-62.55-33.839-85.109-22.559-23.584-53.321-36.915-86.135-36.915-65.626 0-118.95 53.321-118.95 118.95v535.27h467.59c26.661 0 49.22 20.508 50.245 46.144 1.0254 27.686-21.534 51.271-49.22 51.271h-567.05v-717.79c0-19.483-15.381-34.864-34.864-34.864s-34.864 15.381-34.864 34.864v788.54h634.73c66.652 0 123.05-54.347 122.02-122.02-1.0254-64.601-54.347-117.92-119.97-117.92h-397.86v-465.54c0-26.661 21.534-48.194 48.194-48.194 11.28 0 23.584 4.1016 31.788 11.28 11.28 9.2287 17.432 23.584 17.432 37.94v367.1h384.53c19.483 0 34.864-15.381 34.864-34.864 0-19.483-15.381-34.864-34.864-34.864h-313.78z" stroke-width="10.254"></path></svg><style>@media (prefers-color-scheme: light) { :root { filter: none; } }
@media (prefers-color-scheme: dark) { :root { filter: invert(100%); } }
</style></svg>